<svg xmlns="http://www.w3.org/2000/svg" fill="none" viewBox="0 0 951 102">
  <path fill="url(#logo25)" d="M329.909 61.54a18.206 18.206 0 0 0 1.24-7.377c0-10.442-7.388-17.204-18.47-17.204a17.49 17.49 0 0 0-7.197.977 17.563 17.563 0 0 0-6.191 3.82 17.707 17.707 0 0 0-4.127 6.012 17.786 17.786 0 0 0-1.361 7.175 17.617 17.617 0 0 0 1.256 7.1 17.497 17.497 0 0 0 3.995 5.988 17.386 17.386 0 0 0 6.056 3.857 17.307 17.307 0 0 0 7.09 1.078 17.896 17.896 0 0 0 7.348-1.15 17.97 17.97 0 0 0 6.259-4.039 18.1 18.1 0 0 0 4.102-6.237Zm-15.899 7.373c-7.388 0-12.56-6.35-12.56-15.455 0-11.036 6.095-12.71 9.788-12.71h.149c7.055 0 11.969 6.171 11.969 14.866 0 12.002-6.54 13.299-9.346 13.299Zm40.301-24.855v-.298a3.728 3.728 0 0 0-.222-1.45c-.147-.297-.516-.965-2.032-.965h-6.316v10.33h6.057a1.505 1.505 0 0 0 1.331-.56l.332-.442.481.22c.591.261 1.329.93 1.329 1.561-.11 1.524-.554 6.282-.554 6.282v.928l-.849-.373c-.407-.186-1.367-.631-1.367-1.263a4.866 4.866 0 0 0-.222-1.19c-.074-.186-.554-.855-1.478-1.078-.923-.223-3.656-.221-4.875-.221v3.418a87.29 87.29 0 0 0 .221 8.77c.148 1.376.111 1.858.886 1.858.714.056 1.43.056 2.144 0h.295l2.401 2.49h-17.916l1.957-2.49h.296a6.4 6.4 0 0 0 1.477 0c.407-.111.776-.073.776-1.894V50.93c0-6.651.074-7.69 0-9.028-.073-1.338-.221-1.635-1.292-1.858a8.957 8.957 0 0 0-1.626 0l-.479-.557-2.18-2.415h20.871a4 4 0 0 0 1.44 0l.665-.223h.295l.259.185c.112.037.813.743.813 1.078 0 .334-.664 5.165-.664 6.577v1.263l-2.254-1.894Zm-250.748 50.61a37.698 37.698 0 0 1-4.728-.447c-1.552-.372-4.766-1.151-9.42-12.261C82.027 63.715 57.277 3.108 57.018 2.514L56.207.545l-1.663 1.263A16.79 16.79 0 0 0 49.63 8.2c-.258.632-26.855 61.235-31.03 70.301-6.279 13.674-9.16 15.161-9.677 15.31a15.367 15.367 0 0 1-4.285.82h-.924L.02 100.205h39.748l-4.803-5.502h-2.549c-3.14 0-3.14-1.113-3.14-2.079a233.075 233.075 0 0 1 9.457-26.718H63.52l10.675 27.756c.076.28.076.577 0 .856a1.541 1.541 0 0 1-.627.37h-.48l-4.212 5.204h39.193l-3.694-5.425h-.812ZM41.577 57.174l9.679-24.265 9.383 24.265H41.576Zm123.195-5.316h43.22l-3.917 5.425h-.774s-1.737.111-3.067.334c-2.032.371-3.214 1.712-3.214 5.316v27.124c0 3.308-.11 4.422-2.401 5.76h-.665a59.166 59.166 0 0 0-10.601 2.416 69.392 69.392 0 0 1-21.203 3.716 66.201 66.201 0 0 1-39.896-11.481 44.797 44.797 0 0 1-13.359-16.544 45.061 45.061 0 0 1-4.261-20.876 47.183 47.183 0 0 1 5.515-23.325 46.863 46.863 0 0 1 16.242-17.549c11.821-7.171 25.378-8.1 35.869-8.1a117.224 117.224 0 0 1 21.647 2.638 78.636 78.636 0 0 0 9.271 1.3c2.181.186 3.251 1.71 3.251 3.085 0 1.374-.96 20.957-.96 21.812v2.043l-1.957-.52c-1.331-.335-3.473-1.152-3.695-2.973a15.211 15.211 0 0 0-3.694-9.104c-3.879-4.162-10.602-8.918-28.296-8.918a33.11 33.11 0 0 0-22.792 7.098c-7.055 6.094-10.491 15.233-10.491 28.387 0 25.788 16.549 43.81 40.265 43.81a42.344 42.344 0 0 0 12.19-1.187c.813-.408 1.33-1.006 1.33-2.975V77.202c0-5.945.184-10.59 0-14.232-.185-3.641-.886-4.68-3.878-5.312a24.045 24.045 0 0 0-4.359-.334h-.777l-4.543-5.465Zm111.115 28.983 6.206-4.308-3.065 23.707h-64.092l5.135-5.65h.701a19.235 19.235 0 0 0 4.101-.446c1.182-.26 1.773-1.597 2.29-5.313.591-4.905 1.293-46.56 1.293-46.968 0-18.43.075-21.848-.221-25.6-.295-3.754-.961-4.758-3.99-5.39a25.16 25.16 0 0 0-4.469-.333l-.665-.113-5.394-5.387h55.115a16.54 16.54 0 0 0 6.575-1.078l.739-.333.738.408a2.95 2.95 0 0 1 1.553 2.564l-2.069 20.436-5.135-4.049v-.818a11.25 11.25 0 0 0-.591-3.716c-.555-1.412-1.072-2.676-6.907-3.382-1.7-.186-12.782-.445-16.477-.445V44.54c2.918 0 8.239-.038 10.75-.223a8.313 8.313 0 0 0 4.84-1.301l2.105-2.377.997.334a3.25 3.25 0 0 1 2.106 2.117v.262l-1.921 22.292-4.986-2.71v-2.043a17.102 17.102 0 0 0-.333-2.976c-.37-1.449-1.33-3.008-5.467-3.454-1.884-.372-4.914-.37-7.869-.37.074 3.38.554 24.672.554 27.905.149 4.31.296 5.87 1.773 6.985 1.478 1.115 4.545 1.597 10.639 1.597a30.812 30.812 0 0 0 10.86-1.3c2.586-1.189 3.805-3.232 4.581-7.765v-.671Zm104.836 8.066c.591-4.905 1.292-46.301 1.292-46.747 0-18.356-.22-21.737-.22-25.49s-.74-4.793-3.695-5.425a21.45 21.45 0 0 0-4.396-.334h-.664l-5.542-5.76h54.339a17.305 17.305 0 0 0 6.428-1.04l.738-.372.703.408a2.94 2.94 0 0 1 1.551 2.564l-2.032 20.735-5.209-4.31v-.781a11.173 11.173 0 0 0-.591-3.716c-.554-1.412-.85-2.6-6.575-3.306-1.736-.186-12.486-.484-16.179-.484v29.726c2.844 0 8.2-.074 10.564-.26 2.365-.185 3.842-.483 4.543-1.3l2.069-2.377 1.035.37a3.691 3.691 0 0 1 2.252 2.156v.26l-1.883 22.296-5.097-2.936v-2.043a16.366 16.366 0 0 0-.371-2.9c-.369-1.448-1.107-3.048-5.17-3.494-1.847-.334-4.802-.334-7.72-.334.073 3.345.591 24.822.591 28.018.11 4.31.369 5.5 1.809 6.651 1.441 1.152 4.064 1.56 10.048 1.56a29.786 29.786 0 0 0 10.675-1.298c2.549-1.19 3.731-3.196 4.508-7.73l-.149-.558 6.428-4.533-3.029 24.225h-62.798l5.06-5.646h.628a18.383 18.383 0 0 0 3.99-.446c1.182-.223 1.588-1.633 2.069-5.349Zm161.76 1.115-5.245-46.375-24.788 48.566c-2.843 5.574-5.097 8.063-7.388 8.063h-.96l-29.108-55.44-4.765 41.542a32.845 32.845 0 0 0-.334 5.091c.075 1.078.185 1.597 2.069 2.043 1.585.305 3.19.493 4.803.559h.664l5.652 6.169h-42.001l5.541-6.169h.74a23.662 23.662 0 0 0 3.324-.334c1.958-.446 2.364-3.27 3.251-7.432l.221-1.226c.997-4.756 14.222-77.289 14.222-78.032.517-2.935 4.581-4.645 5.023-4.645l1.368-.484 35.167 69.56 32.469-65.286c1.146-2.34 5.099-3.53 5.8-3.715l1.773-.52 12.265 78.401c1.108 7.654 2.215 11.743 4.801 12.523a32.253 32.253 0 0 0 7.093 1.154h.739l5.505 6.205h-41.669l2.733-6.986.738-.26c.666-.223.259-2.453.297-2.972ZM647.17 12.435c-1.958-1.821-7.905-7.432-23.789-7.432h-41.705l5.8 6.28.369.038a24.7 24.7 0 0 1 4.433.334c2.955.631 3.324 1.673 3.694 5.463.369 3.79.221 6.167.221 24.671 0 .409-.591 41.397-1.182 46.34-.516 3.715-.849 5.124-2.032 5.384a18.567 18.567 0 0 1-4.026.447h-.739l-5.393 6.281h48.761l-5.356-6.169h-.739c-2.002-.035-4-.184-5.984-.447-2.18-.296-2.697-1.524-3.104-5.203-.259-2.266-.554-17.612-.85-33.925l2.956 4.979h3.694a30.068 30.068 0 0 0 12.259-2 30.2 30.2 0 0 0 10.422-6.793 30.438 30.438 0 0 0 6.827-10.436 30.589 30.589 0 0 0 2.076-12.318 22.359 22.359 0 0 0-6.613-15.494ZM635.387 34.73c0 10.478-7.388 18.17-13.852 18.17h-6.17c-.258-16.349-.48-33.22-.554-38.607l4.027.038a15.21 15.21 0 0 1 5.857 1.257 15.289 15.289 0 0 1 4.929 3.424 20.414 20.414 0 0 1 4.559 7.238 20.5 20.5 0 0 1 1.204 8.48Zm71.995 59.266 5.615 6.245h-49.241l5.578-6.318h.776a16.588 16.588 0 0 0 3.695-.41c1.07-.223 1.661-.63 2.068-4.568.628-5.016 1.403-46.71 1.145-47.156 0-18.504.221-20.845 0-24.56-.295-4.385-1.145-5.24-2.439-5.5a17.36 17.36 0 0 0-4.063-.408h-.738L664.2 5.04h44.845l-5.763 6.242h-.738a17.16 17.16 0 0 0-3.214.261c-2.068.371-2.659 1.412-2.918 5.276-.259 3.864-.259 6.613-.259 25.193.037.371.738 42.026 1.256 47.117.369 3.195.886 4.162 3.287 4.46 1.921.267 3.859.402 5.8.406h.886Zm168.409-12.78c-.923 4.719-1.661 5.982-3.693 7.431a23.477 23.477 0 0 1-10.638 1.484c-11.747 0-11.6-1.632-11.786-8.766 0-3.233-.591-23.298-.664-26.679 2.918 0 4.95-.003 6.76.257 4.027.446 5.098 1.75 5.467 3.31.191.981.315 1.974.37 2.972v2.043l5.651 3.157 1.736-22.814v-.298a4.195 4.195 0 0 0-2.4-2.304l-1.036-.333-2.068 2.378c-.665.706-1.883 1.04-4.728 1.301-2.844.26-7.056.221-9.936.221V15.445c3.693 0 14.148 0 15.884.482 5.835.967 5.688 2.23 6.206 3.716a8.06 8.06 0 0 1 .442 3.197v.78l5.8 4.681 2.032-21.03a3.731 3.731 0 0 0-.554-1.673 3.696 3.696 0 0 0-1.256-1.226l-.739-.408-.775.372a16.76 16.76 0 0 1-6.391 1.039h-54.412l5.873 6.28h2.844a11.88 11.88 0 0 1 2.217 0c2.843.594 3.361 1.673 3.693 5.537.334 3.864.222 5.388.222 23.855 0 .446-.628 41.838-1.404 48.304-.406 3.307-1.292 4.199-1.736 4.496a24.927 24.927 0 0 1-4.063.374h-.886l-4.618 5.312-3.251-5.2a6.92 6.92 0 0 1-1.626 0c-.811-.185-3.472-.003-10.528-7.62-5.983-6.317-15.329-16.126-26.485-30.209 10.676-9.067 14.997-17.502 14.997-27.646a23.234 23.234 0 0 0-2.617-10.102 23.098 23.098 0 0 0-6.766-7.918A39.698 39.698 0 0 0 757.88 5.56h-40.413l5.91 6.282.185-.521a24.473 24.473 0 0 1 4.359.297c2.919.632 3.399 1.448 3.695 5.238.295 3.79-.629 67.146-1.22 72.125-.48 3.716-.96 4.385-2.106 4.645a16.146 16.146 0 0 1-3.693.334h-.739l-5.542 6.281h46.175l-4.247-6.281h-.887a55.253 55.253 0 0 1-5.651-.447c-2.181-.297-2.735-1.558-3.104-5.349-.591-5.016-.554-25.64-.554-25.64s9.826.001 9.974.261c1.552 1.821 7.831 9.92 12.633 16.609 7.167 9.958 11.082 14.862 17.103 18.318 5.135 3.009 13.854 2.529 20.687 2.529h69.151l3.067-24.563-6.872 4.83v.707ZM765.416 51.412c-1.7 1.226-2.772 1.674-7.39 1.636a27.77 27.77 0 0 1-8.089-1.005V14.888l6.28.149c6.576 0 15.404 5.759 15.404 20.139 0 10.256-3.694 14.527-6.205 16.237Zm184.92 22.74a25.898 25.898 0 0 1-3.267 12.803 25.732 25.732 0 0 1-9.144 9.493 37.884 37.884 0 0 1-20.576 5.204 45.32 45.32 0 0 1-21.129-4.348l-.961-.446.812-26.53 6.059 4.681v.817c.19 2.2.637 4.37 1.329 6.466a15.514 15.514 0 0 0 6.208 7.74 15.37 15.37 0 0 0 9.602 2.366c7.204 0 14.592-4.42 14.592-11.851 0-4.534-.813-9.999-11.415-17.988l-5.578-4.383c-13.298-10.182-18.987-19.137-18.987-30.024 0-14.418 12.45-24.523 30.254-24.523a83.27 83.27 0 0 1 19.319 2.525l1.257.334-.886 24.376-5.726-5.201v-.743a12.679 12.679 0 0 0-2.808-6.838 15.341 15.341 0 0 0-5.744-4.18 15.244 15.244 0 0 0-7-1.132c-7.942 0-12.929 3.975-12.929 10.552 0 4.533 1.736 8.286 12.264 16.09l3.473 2.563c15.477 11.742 20.981 20.139 20.981 32.178Z"/>
  <defs>
    <linearGradient id="logo25" x1=".02" x2="21.438" y1=".545" y2="201.168" gradientUnits="userSpaceOnUse">
      <stop stop-color="#B9873D"/>
      <stop offset=".521" stop-color="#FFDF91"/>
      <stop offset="1" stop-color="#B9873D"/>
    </linearGradient>
  </defs>
</svg>